<svg xmlns="http://www.w3.org/2000/svg" id="canvas" viewBox="224.166 314.468 1052.558 134.900"><path d="M 241.09,325.92 C 240.47 327.12, 240.22 328.56, 239.62 332.14 C 239.03 335.73, 238.85 338.16, 238.12 343.85 C 237.38 349.54, 236.88 353.41, 235.95 360.61 C 235.01 367.80, 234.43 372.09, 233.44 379.81 C 232.44 387.52, 231.85 391.79, 230.97 399.19 C 230.09 406.60, 229.66 410.44, 229.02 416.84 C 228.39 423.23, 228.18 426.30, 227.82 431.17 C 227.45 436.04, 227.09 438.23, 227.18 441.19 C 227.28 444.15, 227.69 445.21, 228.30 445.95 C 228.91 446.70, 229.65 446.49, 230.23 444.92 C 230.81 443.36, 231.02 441.89, 231.21 438.13 C 231.40 434.37, 231.10 431.70, 231.17 426.11 C 231.25 420.52, 231.28 416.94, 231.58 410.16 C 231.89 403.39, 232.17 399.40, 232.69 392.22 C 233.21 385.04, 233.53 381.16, 234.19 374.27 C 234.84 367.37, 235.19 363.87, 235.98 357.76 C 236.76 351.64, 237.19 348.77, 238.10 343.70 C 239.01 338.63, 239.47 336.34, 240.52 332.40 C 241.57 328.46, 242.46 326.57, 243.35 324.00 C 244.23 321.43, 244.42 320.34, 244.95 319.57 C 245.47 318.80, 245.40 318.88, 245.97 320.14 C 246.54 321.40, 246.82 322.62, 247.79 325.87 C 248.75 329.12, 249.53 331.66, 250.79 336.40 C 252.06 341.14, 252.69 344.30, 254.10 349.56 C 255.50 354.81, 256.18 357.82, 257.82 362.68 C 259.46 367.53, 260.28 369.98, 262.29 373.83 C 264.29 377.69, 265.31 379.47, 267.83 381.94 C 270.35 384.41, 271.84 385.44, 274.90 386.18 C 277.97 386.91, 279.83 386.78, 283.15 385.62 C 286.46 384.45, 288.07 383.33, 291.47 380.35 C 294.87 377.38, 296.62 375.23, 300.14 370.75 C 303.65 366.27, 305.67 363.21, 309.06 357.96 C 312.45 352.71, 314.17 349.49, 317.09 344.51 C 320.02 339.53, 321.52 336.83, 323.69 333.07 C 325.86 329.31, 327.00 327.69, 327.94 325.71 C 328.87 323.74, 328.59 322.90, 328.36 323.19 C 328.13 323.48, 327.33 324.27, 326.78 327.16 C 326.22 330.05, 326.23 332.47, 325.59 337.64 C 324.95 342.81, 324.45 346.31, 323.58 353.01 C 322.71 359.71, 322.09 363.87, 321.25 371.15 C 320.40 378.42, 319.89 382.46, 319.36 389.39 C 318.83 396.31, 318.65 399.85, 318.61 405.78 C 318.57 411.71, 318.65 414.42, 319.16 419.02 C 319.67 423.63, 319.98 425.62, 321.15 428.82 C 322.33 432.01, 323.13 433.30, 325.03 434.99 C 326.92 436.68, 328.17 437.17, 330.63 437.27 C 333.08 437.37, 334.61 437.08, 337.32 435.50 C 340.03 433.91, 341.32 432.46, 344.18 429.35 C 347.05 426.25, 348.63 424.16, 351.64 419.98 C 354.65 415.80, 356.35 413.10, 359.23 408.46 C 362.12 403.81, 363.62 401.08, 366.07 396.76 C 368.52 392.44, 369.83 390.17, 371.49 386.86 C 373.15 383.55, 373.86 382.03, 374.37 380.19 C 374.89 378.35, 374.56 377.62, 374.07 377.67 C 373.58 377.72, 372.67 378.32, 371.91 380.45 C 371.15 382.57, 370.79 384.61, 370.26 388.31 C 369.73 392.01, 369.48 394.64, 369.26 398.96 C 369.05 403.28, 368.91 405.90, 369.18 409.92 C 369.44 413.93, 369.52 415.98, 370.59 419.03 C 371.66 422.09, 372.56 423.43, 374.54 425.21 C 376.52 426.99, 377.86 427.58, 380.50 427.93 C 383.15 428.27, 384.78 428.13, 387.77 426.92 C 390.75 425.72, 392.34 424.51, 395.42 421.89 C 398.50 419.27, 400.15 417.44, 403.18 413.83 C 406.21 410.22, 407.86 407.83, 410.56 403.84 C 413.27 399.86, 414.69 397.41, 416.71 393.91 C 418.72 390.41, 419.79 388.66, 420.63 386.35 C 421.47 384.03, 421.26 382.95, 420.92 382.33 C 420.57 381.71, 419.76 381.90, 418.88 383.24 C 418.00 384.59, 417.15 386.08, 416.51 389.05 C 415.87 392.01, 415.82 394.28, 415.68 398.07 C 415.54 401.85, 415.50 404.19, 415.80 407.99 C 416.11 411.79, 416.25 413.84, 417.22 417.07 C 418.20 420.30, 418.86 421.88, 420.69 424.14 C 422.52 426.40, 423.78 427.29, 426.38 428.37 C 428.98 429.45, 430.62 429.79, 433.70 429.52 C 436.78 429.26, 438.50 428.62, 441.77 427.05 C 445.05 425.48, 446.82 424.32, 450.07 421.68 C 453.32 419.03, 455.05 417.30, 458.02 413.83 C 460.99 410.35, 462.45 408.16, 464.91 404.30 C 467.37 400.44, 468.48 398.20, 470.31 394.52 C 472.14 390.84, 472.96 388.92, 474.06 385.89 C 475.15 382.85, 475.46 381.42, 475.77 379.35 C 476.08 377.29, 475.88 376.44, 475.63 375.57 C 475.37 374.69, 474.84 374.57, 474.49 374.96 C 474.15 375.36, 473.71 376.02, 473.89 377.53 C 474.07 379.05, 474.31 380.22, 475.40 382.53 C 476.49 384.83, 477.63 386.18, 479.33 389.07 C 481.03 391.96, 482.14 393.70, 483.91 396.98 C 485.68 400.26, 486.73 402.15, 488.19 405.47 C 489.64 408.79, 490.39 410.60, 491.19 413.59 C 491.99 416.59, 492.23 418.04, 492.20 420.45 C 492.17 422.87, 492.01 423.89, 491.05 425.68 C 490.08 427.46, 489.24 428.17, 487.36 429.40 C 485.48 430.62, 484.17 431.12, 481.65 431.81 C 479.12 432.50, 477.49 432.82, 474.72 432.86 C 471.95 432.89, 470.33 432.71, 467.80 431.99 C 465.28 431.26, 464.01 430.49, 462.10 429.22 C 460.19 427.96, 459.40 426.94, 458.27 425.66 C 457.13 424.38, 456.94 423.79, 456.43 422.82 C 455.91 421.85, 455.88 421.45, 455.70 420.80 C 455.52 420.15, 455.78 419.89, 455.52 419.57 C 455.27 419.25, 454.88 418.95, 454.43 419.19 C 453.99 419.43, 453.49 419.81, 453.29 420.77 C 453.08 421.72, 453.00 422.53, 453.42 423.98 C 453.83 425.42, 454.10 426.25, 455.36 427.98 C 456.63 429.70, 457.50 431.01, 459.76 432.62 C 462.01 434.22, 463.64 435.12, 466.64 436.00 C 469.64 436.87, 471.52 437.03, 474.76 437.01 C 478.00 436.98, 479.85 436.78, 482.82 435.89 C 485.79 435.00, 487.35 434.27, 489.61 432.55 C 491.87 430.83, 492.87 429.70, 494.12 427.30 C 495.36 424.89, 495.74 423.46, 495.83 420.54 C 495.93 417.61, 495.50 415.96, 494.59 412.67 C 493.69 409.38, 492.81 407.58, 491.31 404.11 C 489.82 400.65, 488.76 398.75, 487.13 395.34 C 485.50 391.93, 484.56 390.09, 483.16 387.06 C 481.77 384.03, 481.28 382.42, 480.14 380.20 C 479.01 377.98, 478.48 377.14, 477.51 375.97 C 476.53 374.80, 476.05 374.51, 475.27 374.35 C 474.49 374.20, 474.19 374.36, 473.62 375.21 C 473.06 376.06, 473.03 376.71, 472.46 378.62 C 471.89 380.52, 471.74 381.83, 470.78 384.76 C 469.81 387.68, 469.29 389.64, 467.64 393.25 C 466.00 396.86, 464.91 399.07, 462.56 402.81 C 460.20 406.55, 458.74 408.67, 455.85 411.95 C 452.97 415.23, 451.24 416.83, 448.12 419.21 C 445.01 421.58, 443.25 422.53, 440.29 423.81 C 437.33 425.10, 435.86 425.37, 433.33 425.63 C 430.81 425.89, 429.65 425.85, 427.67 425.11 C 425.69 424.37, 424.85 423.76, 423.44 421.95 C 422.04 420.14, 421.47 418.90, 420.66 416.06 C 419.85 413.23, 419.55 411.30, 419.39 407.76 C 419.23 404.22, 419.47 401.95, 419.85 398.37 C 420.24 394.79, 421.00 392.76, 421.33 389.85 C 421.67 386.95, 421.76 385.42, 421.54 383.84 C 421.32 382.27, 421.02 381.75, 420.22 381.96 C 419.43 382.17, 418.82 382.81, 417.57 384.90 C 416.32 386.99, 415.86 388.93, 413.99 392.40 C 412.13 395.88, 410.84 398.37, 408.23 402.27 C 405.63 406.18, 403.94 408.52, 400.96 411.93 C 397.98 415.34, 396.25 417.02, 393.32 419.31 C 390.39 421.61, 388.81 422.33, 386.31 423.39 C 383.81 424.45, 382.75 424.71, 380.82 424.62 C 378.89 424.52, 378.06 424.24, 376.67 422.90 C 375.28 421.56, 374.71 420.57, 373.87 417.93 C 373.02 415.29, 372.65 413.46, 372.44 409.71 C 372.22 405.97, 372.39 403.37, 372.78 399.21 C 373.17 395.06, 373.84 392.55, 374.39 388.92 C 374.95 385.30, 375.56 383.37, 375.57 381.09 C 375.58 378.80, 375.16 377.90, 374.44 377.49 C 373.73 377.08, 373.12 377.44, 371.99 379.04 C 370.85 380.65, 370.39 382.21, 368.77 385.51 C 367.14 388.81, 366.18 391.20, 363.85 395.53 C 361.53 399.86, 360.02 402.58, 357.14 407.15 C 354.26 411.72, 352.52 414.38, 349.46 418.37 C 346.41 422.36, 344.70 424.34, 341.87 427.12 C 339.05 429.89, 337.59 430.80, 335.34 432.24 C 333.08 433.67, 332.28 434.16, 330.60 434.29 C 328.93 434.42, 328.30 434.20, 326.95 432.90 C 325.60 431.60, 324.94 430.63, 323.83 427.80 C 322.73 424.97, 322.07 423.14, 321.41 418.73 C 320.75 414.33, 320.59 411.62, 320.54 405.78 C 320.48 399.93, 320.63 396.40, 321.14 389.52 C 321.65 382.64, 322.16 378.61, 323.08 371.37 C 323.99 364.13, 324.67 359.98, 325.73 353.32 C 326.79 346.66, 327.48 343.21, 328.39 338.05 C 329.29 332.90, 330.12 330.61, 330.24 327.55 C 330.36 324.49, 329.88 323.41, 328.98 322.75 C 328.08 322.10, 327.25 322.47, 325.73 324.28 C 324.22 326.09, 323.52 327.96, 321.41 331.78 C 319.30 335.60, 318.01 338.40, 315.17 343.40 C 312.33 348.39, 310.60 351.59, 307.22 356.76 C 303.84 361.93, 301.77 364.95, 298.26 369.24 C 294.75 373.54, 292.89 375.55, 289.66 378.23 C 286.43 380.91, 284.91 381.68, 282.11 382.64 C 279.30 383.60, 278.09 383.61, 275.64 383.05 C 273.19 382.49, 272.08 381.91, 269.87 379.82 C 267.66 377.74, 266.54 376.20, 264.59 372.61 C 262.65 369.02, 261.74 366.63, 260.14 361.89 C 258.54 357.15, 257.87 354.16, 256.59 348.92 C 255.32 343.68, 254.84 340.51, 253.78 335.68 C 252.73 330.84, 252.51 328.15, 251.34 324.73 C 250.16 321.31, 249.44 319.91, 247.92 318.57 C 246.41 317.23, 245.30 317.19, 243.75 318.03 C 242.20 318.88, 241.32 320.03, 240.18 322.79 C 239.03 325.55, 238.86 327.71, 238.03 331.82 C 237.20 335.93, 236.82 338.22, 236.04 343.36 C 235.26 348.50, 234.86 351.38, 234.14 357.53 C 233.42 363.68, 233.09 367.19, 232.44 374.10 C 231.79 381.01, 231.47 384.90, 230.89 392.09 C 230.31 399.27, 230.02 403.26, 229.53 410.04 C 229.05 416.83, 228.85 420.41, 228.47 426.00 C 228.09 431.59, 227.75 434.23, 227.63 437.98 C 227.51 441.73, 227.53 443.17, 227.87 444.74 C 228.21 446.32, 228.85 446.56, 229.32 445.86 C 229.79 445.15, 230.09 444.13, 230.22 441.21 C 230.36 438.30, 229.89 436.12, 230.01 431.28 C 230.13 426.43, 230.29 423.38, 230.82 417.00 C 231.34 410.62, 231.75 406.78, 232.62 399.39 C 233.48 391.99, 234.07 387.73, 235.13 380.03 C 236.18 372.33, 236.83 368.05, 237.90 360.88 C 238.97 353.71, 239.58 349.86, 240.49 344.19 C 241.39 338.52, 241.96 336.15, 242.40 332.54 C 242.84 328.93, 242.95 327.47, 242.69 326.15 C 242.43 324.82, 241.70 324.72, 241.09 325.92" style="stroke: black; fill: black;"/><path d="M 521.76,326.93 C 521.24 327.54, 520.96 328.01, 520.61 330.05 C 520.26 332.09, 520.21 333.42, 520.01 337.12 C 519.82 340.81, 519.90 343.37, 519.63 348.52 C 519.37 353.68, 519.12 356.94, 518.70 362.90 C 518.27 368.86, 517.96 372.30, 517.51 378.33 C 517.07 384.37, 516.81 387.54, 516.47 393.08 C 516.13 398.61, 515.99 401.34, 515.82 406.00 C 515.66 410.65, 515.48 412.82, 515.64 416.33 C 515.80 419.85, 515.91 421.49, 516.60 423.56 C 517.29 425.62, 517.98 426.29, 519.08 426.66 C 520.18 427.02, 520.87 426.68, 522.12 425.38 C 523.36 424.09, 524.00 423.00, 525.31 420.18 C 526.63 417.35, 526.97 415.16, 528.69 411.25 C 530.40 407.34, 531.46 404.85, 533.90 400.61 C 536.34 396.37, 537.93 394.00, 540.88 390.05 C 543.84 386.10, 545.61 384.05, 548.65 380.85 C 551.70 377.64, 553.44 376.25, 556.10 374.04 C 558.77 371.82, 560.14 371.07, 561.99 369.78 C 563.84 368.48, 564.44 368.26, 565.37 367.57 C 566.31 366.88, 566.41 366.65, 566.67 366.32 C 566.92 366.00, 566.61 366.06, 566.62 365.95 C 566.64 365.84, 566.78 365.93, 566.73 365.78 C 566.67 365.63, 566.85 365.31, 566.35 365.19 C 565.85 365.08, 565.48 364.85, 564.24 365.20 C 562.99 365.56, 562.15 365.67, 560.12 366.97 C 558.08 368.26, 556.76 369.28, 554.08 371.69 C 551.39 374.11, 549.75 375.67, 546.70 379.04 C 543.65 382.40, 541.87 384.48, 538.83 388.51 C 535.80 392.54, 534.16 394.93, 531.51 399.18 C 528.87 403.43, 527.65 405.91, 525.60 409.75 C 523.55 413.59, 522.47 415.54, 521.26 418.37 C 520.05 421.20, 519.88 422.45, 519.55 423.91 C 519.22 425.36, 519.61 425.84, 519.60 425.64 C 519.59 425.44, 519.69 424.81, 519.50 422.91 C 519.32 421.02, 518.91 419.53, 518.66 416.15 C 518.41 412.78, 518.24 410.63, 518.23 406.04 C 518.22 401.44, 518.34 398.70, 518.62 393.20 C 518.89 387.69, 519.14 384.52, 519.62 378.49 C 520.09 372.47, 520.43 369.04, 520.99 363.09 C 521.56 357.14, 521.90 353.89, 522.45 348.74 C 522.99 343.60, 523.39 341.07, 523.71 337.37 C 524.03 333.68, 524.14 332.34, 524.04 330.26 C 523.95 328.19, 523.69 327.68, 523.23 327.01 C 522.78 326.35, 522.29 326.32, 521.76 326.93" style="stroke: black; fill: black;"/><path d="M 541.83,399.40 C 541.57 400.41, 541.51 401.66, 542.16 403.91 C 542.80 406.15, 543.39 407.82, 545.06 410.63 C 546.74 413.44, 548.02 415.26, 550.53 417.96 C 553.03 420.67, 554.56 422.01, 557.60 424.14 C 560.64 426.27, 562.37 427.23, 565.73 428.61 C 569.08 429.99, 570.86 430.51, 574.36 431.04 C 577.87 431.57, 579.70 431.60, 583.25 431.25 C 586.81 430.90, 588.67 430.52, 592.14 429.30 C 595.61 428.08, 597.38 427.20, 600.60 425.15 C 603.83 423.10, 605.49 421.75, 608.26 419.04 C 611.03 416.32, 612.33 414.68, 614.45 411.57 C 616.56 408.45, 617.46 406.67, 618.83 403.47 C 620.20 400.26, 620.86 398.53, 621.28 395.54 C 621.70 392.56, 621.63 391.00, 620.93 388.54 C 620.23 386.09, 619.59 384.85, 617.79 383.29 C 616.00 381.72, 614.64 380.95, 611.95 380.72 C 609.26 380.48, 607.48 380.73, 604.33 382.10 C 601.17 383.48, 599.37 384.79, 596.17 387.58 C 592.97 390.36, 591.12 392.34, 588.32 396.04 C 585.53 399.74, 584.07 402.09, 582.20 406.07 C 580.32 410.05, 579.52 412.28, 578.94 415.95 C 578.36 419.61, 578.39 421.53, 579.31 424.38 C 580.22 427.23, 581.32 428.54, 583.51 430.20 C 585.70 431.87, 587.31 432.48, 590.26 432.70 C 593.21 432.92, 595.05 432.54, 598.26 431.31 C 601.48 430.08, 603.21 428.98, 606.34 426.56 C 609.48 424.15, 611.12 422.46, 613.93 419.23 C 616.74 416.00, 618.17 413.84, 620.40 410.42 C 622.63 407.01, 623.97 404.92, 625.09 402.16 C 626.20 399.41, 626.14 397.85, 625.97 396.64 C 625.80 395.42, 625.07 395.33, 624.24 396.09 C 623.41 396.86, 622.44 398.04, 621.81 400.48 C 621.18 402.92, 620.96 405.05, 621.11 408.28 C 621.25 411.51, 621.65 413.57, 622.53 416.63 C 623.41 419.69, 623.99 421.25, 625.50 423.57 C 627.02 425.89, 628.01 426.90, 630.10 428.22 C 632.18 429.54, 633.45 429.99, 635.93 430.18 C 638.40 430.37, 639.87 430.21, 642.49 429.16 C 645.10 428.10, 646.51 427.12, 649.00 424.90 C 651.49 422.68, 652.70 421.07, 654.96 418.04 C 657.22 415.00, 658.35 413.02, 660.28 409.74 C 662.21 406.45, 663.33 404.48, 664.63 401.62 C 665.93 398.77, 666.42 397.11, 666.80 395.45 C 667.17 393.78, 666.84 393.21, 666.49 393.29 C 666.14 393.36, 665.57 394.09, 665.04 395.83 C 664.51 397.58, 664.04 399.22, 663.83 402.01 C 663.62 404.80, 663.76 406.80, 663.98 409.79 C 664.21 412.78, 664.35 414.47, 664.96 416.96 C 665.57 419.45, 665.93 420.62, 667.05 422.22 C 668.16 423.83, 668.87 424.50, 670.53 424.97 C 672.19 425.45, 673.26 425.48, 675.34 424.59 C 677.43 423.70, 678.56 422.78, 680.95 420.54 C 683.33 418.29, 684.56 416.42, 687.26 413.37 C 689.95 410.31, 691.60 408.22, 694.43 405.27 C 697.25 402.31, 698.93 400.66, 701.39 398.61 C 703.85 396.55, 705.02 395.79, 706.73 394.99 C 708.45 394.18, 708.98 394.05, 709.96 394.58 C 710.94 395.10, 711.06 395.86, 711.64 397.60 C 712.22 399.34, 712.26 400.72, 712.86 403.27 C 713.46 405.82, 713.82 407.44, 714.62 410.36 C 715.43 413.28, 715.78 415.02, 716.89 417.88 C 718.00 420.75, 718.58 422.31, 720.16 424.67 C 721.74 427.02, 722.70 428.07, 724.76 429.66 C 726.82 431.25, 728.04 431.86, 730.46 432.62 C 732.88 433.37, 734.29 433.53, 736.86 433.44 C 739.43 433.36, 740.93 433.01, 743.29 432.19 C 745.65 431.37, 746.98 430.51, 748.66 429.33 C 750.35 428.15, 750.86 427.37, 751.71 426.27 C 752.56 425.18, 752.84 424.52, 752.90 423.86 C 752.97 423.20, 752.63 422.95, 752.01 422.98 C 751.39 423.01, 750.91 423.47, 749.81 424.02 C 748.70 424.57, 748.09 424.94, 746.49 425.74 C 744.90 426.54, 743.79 427.30, 741.81 428.02 C 739.84 428.74, 738.67 429.15, 736.62 429.33 C 734.56 429.52, 733.45 429.47, 731.54 428.95 C 729.63 428.43, 728.68 428.01, 727.08 426.72 C 725.48 425.43, 724.79 424.57, 723.54 422.51 C 722.30 420.45, 721.78 419.08, 720.86 416.42 C 719.94 413.77, 719.64 412.12, 718.95 409.24 C 718.25 406.37, 718.21 404.71, 717.40 402.05 C 716.60 399.39, 716.21 397.90, 714.94 395.94 C 713.66 393.98, 712.88 393.02, 711.02 392.24 C 709.16 391.47, 708.01 391.34, 705.64 392.07 C 703.27 392.80, 701.89 393.71, 699.17 395.88 C 696.45 398.06, 694.93 399.94, 692.02 402.94 C 689.10 405.95, 687.41 408.02, 684.60 410.91 C 681.79 413.80, 680.19 415.30, 677.98 417.39 C 675.77 419.48, 674.93 420.35, 673.56 421.37 C 672.19 422.39, 671.89 422.64, 671.14 422.51 C 670.40 422.39, 670.23 422.00, 669.83 420.75 C 669.43 419.50, 669.31 418.50, 669.16 416.27 C 669.00 414.05, 669.00 412.46, 669.05 409.64 C 669.10 406.82, 669.48 404.91, 669.42 402.16 C 669.36 399.40, 669.25 397.75, 668.75 395.86 C 668.24 393.98, 667.83 393.08, 666.91 392.73 C 665.98 392.38, 665.32 392.68, 664.13 394.11 C 662.95 395.54, 662.38 397.11, 660.99 399.89 C 659.61 402.66, 658.99 404.78, 657.21 407.97 C 655.43 411.17, 654.25 413.07, 652.09 415.85 C 649.92 418.64, 648.61 419.98, 646.37 421.90 C 644.14 423.81, 642.95 424.49, 640.90 425.43 C 638.84 426.37, 637.88 426.61, 636.11 426.58 C 634.33 426.56, 633.46 426.31, 632.01 425.31 C 630.55 424.31, 629.85 423.53, 628.83 421.59 C 627.80 419.65, 627.33 418.31, 626.87 415.61 C 626.40 412.92, 626.53 411.05, 626.50 408.13 C 626.46 405.21, 626.81 403.35, 626.70 401.01 C 626.59 398.67, 626.47 397.42, 625.97 396.42 C 625.47 395.41, 625.13 395.18, 624.21 395.98 C 623.29 396.79, 622.68 397.91, 621.36 400.45 C 620.04 403.00, 619.57 405.35, 617.61 408.69 C 615.65 412.04, 614.22 414.13, 611.57 417.16 C 608.91 420.20, 607.25 421.75, 604.32 423.87 C 601.40 426.00, 599.72 426.78, 596.95 427.79 C 594.17 428.81, 592.75 428.98, 590.45 428.93 C 588.15 428.89, 587.03 428.68, 585.44 427.57 C 583.85 426.46, 583.17 425.61, 582.49 423.38 C 581.81 421.15, 581.56 419.63, 582.03 416.42 C 582.51 413.21, 583.12 411.03, 584.85 407.32 C 586.58 403.60, 588.00 401.30, 590.69 397.86 C 593.38 394.42, 595.26 392.55, 598.29 390.11 C 601.33 387.66, 603.16 386.79, 605.85 385.64 C 608.54 384.50, 609.78 384.38, 611.75 384.40 C 613.71 384.42, 614.51 384.75, 615.68 385.74 C 616.84 386.73, 617.23 387.51, 617.58 389.36 C 617.94 391.21, 617.84 392.42, 617.44 394.98 C 617.05 397.54, 616.75 399.20, 615.61 402.15 C 614.47 405.11, 613.66 406.83, 611.74 409.75 C 609.82 412.67, 608.58 414.22, 606.01 416.76 C 603.44 419.29, 601.87 420.53, 598.87 422.42 C 595.88 424.31, 594.24 425.09, 591.05 426.20 C 587.86 427.30, 586.17 427.63, 582.93 427.94 C 579.69 428.25, 578.05 428.22, 574.86 427.74 C 571.68 427.26, 570.06 426.81, 567.01 425.53 C 563.96 424.25, 562.33 423.36, 559.61 421.34 C 556.89 419.32, 555.57 418.01, 553.41 415.42 C 551.25 412.83, 550.37 410.99, 548.83 408.39 C 547.29 405.79, 546.79 404.33, 545.72 402.43 C 544.64 400.53, 544.23 399.49, 543.46 398.88 C 542.68 398.28, 542.09 398.40, 541.83 399.40" style="stroke: black; fill: black;"/><path d="M 871.12,350.46 C 870.61 351.16, 870.34 351.82, 870.07 354.00 C 869.80 356.18, 869.85 357.65, 869.78 361.36 C 869.70 365.07, 869.81 367.64, 869.68 372.56 C 869.56 377.47, 869.40 380.55, 869.16 385.94 C 868.92 391.32, 868.70 394.37, 868.49 399.48 C 868.27 404.59, 868.20 407.19, 868.10 411.48 C 867.99 415.78, 867.80 417.86, 867.95 420.95 C 868.10 424.04, 868.43 425.16, 868.86 426.92 C 869.29 428.69, 869.66 429.26, 870.11 429.79 C 870.56 430.33, 870.87 430.24, 871.11 429.61 C 871.34 428.98, 871.25 428.41, 871.28 426.65 C 871.32 424.89, 871.37 423.85, 871.27 420.82 C 871.17 417.78, 870.85 415.74, 870.78 411.49 C 870.71 407.24, 870.75 404.66, 870.93 399.57 C 871.11 394.49, 871.35 391.45, 871.69 386.08 C 872.03 380.70, 872.28 377.62, 872.64 372.70 C 873.00 367.79, 873.30 365.22, 873.49 361.50 C 873.69 357.77, 873.78 356.28, 873.61 354.08 C 873.44 351.88, 873.15 351.21, 872.66 350.48 C 872.16 349.76, 871.64 349.76, 871.12 350.46" style="stroke: black; fill: black;"/><path d="M 845.20,354.03 C 845.77 353.39, 845.60 352.32, 846.36 350.70 C 847.12 349.07, 847.25 348.08, 848.98 345.91 C 850.71 343.74, 851.53 342.06, 854.99 339.85 C 858.45 337.65, 861.01 336.48, 866.27 334.90 C 871.52 333.32, 875.06 332.64, 881.28 331.95 C 887.50 331.26, 891.21 331.11, 897.38 331.45 C 903.54 331.80, 906.95 332.34, 912.08 333.68 C 917.22 335.02, 919.75 336.16, 923.06 338.15 C 926.37 340.15, 927.46 341.46, 928.63 343.66 C 929.81 345.86, 929.79 346.79, 928.95 349.15 C 928.12 351.51, 927.11 352.89, 924.45 355.47 C 921.79 358.05, 919.58 359.59, 915.66 362.06 C 911.73 364.53, 908.98 365.84, 904.83 367.80 C 900.68 369.76, 898.04 370.39, 894.90 371.86 C 891.76 373.32, 890.27 373.89, 889.12 375.13 C 887.96 376.36, 887.98 377.07, 889.12 378.04 C 890.27 379.01, 891.60 379.31, 894.83 379.97 C 898.05 380.63, 900.61 380.46, 905.25 381.35 C 909.90 382.23, 913.03 382.76, 918.07 384.39 C 923.11 386.02, 926.04 387.11, 930.46 389.48 C 934.87 391.86, 937.13 393.40, 940.16 396.27 C 943.19 399.14, 944.40 400.83, 945.61 403.84 C 946.82 406.86, 946.96 408.32, 946.21 411.35 C 945.46 414.37, 944.61 415.97, 941.87 418.98 C 939.12 421.99, 937.05 423.64, 932.49 426.39 C 927.94 429.14, 924.88 430.55, 919.09 432.74 C 913.30 434.92, 909.77 435.94, 903.55 437.32 C 897.32 438.70, 893.80 439.18, 887.97 439.64 C 882.15 440.09, 879.08 440.04, 874.43 439.59 C 869.78 439.15, 867.64 438.51, 864.72 437.42 C 861.79 436.33, 860.76 435.63, 859.81 434.13 C 858.86 432.63, 858.97 431.93, 859.98 429.93 C 860.98 427.93, 862.42 426.42, 864.83 424.14 C 867.23 421.87, 869.37 420.60, 872.01 418.54 C 874.65 416.49, 877.01 415.12, 878.02 413.86 C 879.02 412.60, 878.68 411.93, 877.05 412.24 C 875.42 412.56, 872.86 413.61, 869.87 415.44 C 866.88 417.27, 864.71 418.74, 862.11 421.39 C 859.51 424.04, 857.77 425.89, 856.87 428.70 C 855.97 431.52, 856.25 433.22, 857.62 435.48 C 858.99 437.75, 860.40 438.75, 863.73 440.03 C 867.05 441.31, 869.36 441.57, 874.25 441.90 C 879.13 442.22, 882.20 442.20, 888.14 441.67 C 894.09 441.15, 897.64 440.65, 903.97 439.26 C 910.31 437.87, 913.88 436.88, 919.82 434.71 C 925.77 432.55, 928.90 431.21, 933.70 428.42 C 938.50 425.63, 940.77 424.05, 943.81 420.77 C 946.86 417.48, 948.06 415.59, 948.92 412.01 C 949.78 408.42, 949.54 406.35, 948.13 402.83 C 946.73 399.32, 945.21 397.53, 941.90 394.43 C 938.60 391.33, 936.22 389.84, 931.62 387.34 C 927.02 384.83, 924.05 383.74, 918.91 381.91 C 913.78 380.07, 910.65 379.31, 905.95 378.16 C 901.25 377.00, 898.67 376.48, 895.43 376.13 C 892.18 375.77, 890.78 376.26, 889.74 376.41 C 888.69 376.56, 888.88 377.15, 890.19 376.87 C 891.50 376.60, 893.09 376.31, 896.27 375.02 C 899.46 373.74, 901.93 372.54, 906.11 370.45 C 910.30 368.35, 913.12 367.10, 917.21 364.54 C 921.31 361.99, 923.66 360.56, 926.59 357.67 C 929.53 354.78, 930.98 353.16, 931.89 350.09 C 932.80 347.02, 932.66 345.12, 931.15 342.31 C 929.64 339.49, 928.03 338.16, 924.32 336.02 C 920.62 333.88, 917.98 332.91, 912.61 331.59 C 907.24 330.28, 903.80 329.78, 897.49 329.43 C 891.18 329.07, 887.44 329.22, 881.06 329.84 C 874.68 330.47, 871.13 331.08, 865.60 332.56 C 860.08 334.03, 857.39 335.05, 853.43 337.20 C 849.48 339.35, 847.92 340.84, 845.82 343.32 C 843.73 345.79, 843.44 347.47, 842.97 349.59 C 842.50 351.70, 843.03 352.99, 843.48 353.88 C 843.92 354.77, 844.62 354.67, 845.20 354.03" style="stroke: black; fill: black;"/><path d="M 998.83,391.15 C 998.63 390.34, 998.15 389.53, 996.82 388.51 C 995.50 387.49, 994.52 386.76, 992.20 386.06 C 989.89 385.35, 988.29 384.80, 985.27 384.99 C 982.24 385.19, 980.46 385.68, 977.07 387.04 C 973.69 388.39, 971.76 389.41, 968.35 391.78 C 964.95 394.16, 962.97 395.74, 960.03 398.89 C 957.09 402.04, 955.56 404.05, 953.64 407.55 C 951.72 411.05, 950.88 413.06, 950.45 416.39 C 950.03 419.71, 950.29 421.55, 951.51 424.18 C 952.74 426.80, 953.99 428.11, 956.57 429.51 C 959.16 430.91, 961.02 431.25, 964.44 431.19 C 967.85 431.13, 969.90 430.60, 973.63 429.20 C 977.37 427.79, 979.45 426.64, 983.13 424.16 C 986.81 421.68, 988.77 419.99, 992.02 416.78 C 995.27 413.56, 996.88 411.48, 999.39 408.09 C 1001.90 404.69, 1003.30 402.61, 1004.59 399.78 C 1005.87 396.96, 1005.96 395.36, 1005.81 393.96 C 1005.66 392.56, 1004.84 392.22, 1003.84 392.80 C 1002.83 393.38, 1001.70 394.41, 1000.78 396.85 C 999.87 399.30, 999.47 401.52, 999.25 405.03 C 999.03 408.54, 999.18 410.85, 999.68 414.38 C 1000.18 417.92, 1000.50 419.83, 1001.76 422.71 C 1003.01 425.59, 1003.94 426.93, 1005.96 428.77 C 1007.99 430.60, 1009.37 431.27, 1011.88 431.88 C 1014.38 432.49, 1015.86 432.47, 1018.50 431.81 C 1021.14 431.16, 1022.58 430.48, 1025.08 428.60 C 1027.59 426.72, 1028.79 425.27, 1031.02 422.43 C 1033.26 419.58, 1034.31 417.75, 1036.24 414.38 C 1038.17 411.01, 1039.06 408.91, 1040.67 405.59 C 1042.28 402.27, 1043.30 400.45, 1044.30 397.78 C 1045.30 395.10, 1045.57 393.62, 1045.69 392.21 C 1045.80 390.79, 1045.39 390.41, 1044.87 390.72 C 1044.34 391.03, 1043.70 391.83, 1043.06 393.75 C 1042.43 395.67, 1042.04 397.34, 1041.68 400.31 C 1041.33 403.29, 1041.41 405.40, 1041.29 408.64 C 1041.16 411.89, 1040.90 413.76, 1041.07 416.54 C 1041.24 419.32, 1041.40 420.68, 1042.13 422.54 C 1042.86 424.41, 1043.44 425.20, 1044.74 425.85 C 1046.04 426.51, 1046.93 426.57, 1048.62 425.83 C 1050.32 425.09, 1051.34 424.34, 1053.22 422.17 C 1055.10 419.99, 1055.87 418.07, 1058.02 414.94 C 1060.18 411.80, 1061.46 409.72, 1064.00 406.49 C 1066.54 403.25, 1068.09 401.37, 1070.73 398.77 C 1073.37 396.17, 1074.93 395.08, 1077.19 393.49 C 1079.45 391.91, 1080.44 391.34, 1082.03 390.86 C 1083.63 390.37, 1084.19 390.42, 1085.15 391.06 C 1086.11 391.70, 1086.30 392.35, 1086.84 394.07 C 1087.38 395.79, 1087.43 397.07, 1087.87 399.67 C 1088.30 402.28, 1088.62 404.00, 1089.00 407.10 C 1089.38 410.19, 1089.40 412.06, 1089.76 415.14 C 1090.12 418.22, 1090.17 419.86, 1090.80 422.49 C 1091.42 425.12, 1091.81 426.44, 1092.89 428.29 C 1093.97 430.14, 1094.96 430.86, 1096.20 431.75 C 1097.44 432.64, 1098.37 432.76, 1099.09 432.73 C 1099.81 432.70, 1099.99 432.22, 1099.81 431.61 C 1099.63 431.00, 1098.92 430.66, 1098.18 429.67 C 1097.44 428.67, 1096.79 428.25, 1096.11 426.64 C 1095.43 425.04, 1095.20 424.04, 1094.77 421.65 C 1094.33 419.26, 1094.21 417.70, 1093.92 414.70 C 1093.63 411.70, 1093.60 409.82, 1093.32 406.64 C 1093.03 403.46, 1093.11 401.61, 1092.50 398.78 C 1091.89 395.95, 1091.45 394.51, 1090.25 392.49 C 1089.06 390.46, 1088.31 389.57, 1086.53 388.65 C 1084.76 387.73, 1083.66 387.51, 1081.38 387.87 C 1079.10 388.24, 1077.73 388.75, 1075.14 390.47 C 1072.54 392.18, 1071.15 393.66, 1068.40 396.44 C 1065.65 399.22, 1064.10 401.14, 1061.40 404.38 C 1058.70 407.61, 1057.27 409.65, 1054.89 412.60 C 1052.51 415.56, 1051.10 417.00, 1049.48 419.15 C 1047.87 421.29, 1047.58 422.32, 1046.84 423.32 C 1046.09 424.33, 1046.06 424.47, 1045.76 424.16 C 1045.47 423.86, 1045.41 423.33, 1045.36 421.79 C 1045.30 420.26, 1045.38 419.05, 1045.48 416.48 C 1045.58 413.92, 1045.57 412.07, 1045.87 408.95 C 1046.17 405.82, 1046.72 403.82, 1046.98 400.86 C 1047.24 397.90, 1047.40 396.23, 1047.16 394.16 C 1046.92 392.08, 1046.55 391.09, 1045.79 390.48 C 1045.04 389.88, 1044.45 389.99, 1043.37 391.13 C 1042.30 392.26, 1041.59 393.57, 1040.41 396.17 C 1039.23 398.77, 1038.90 400.82, 1037.47 404.12 C 1036.04 407.41, 1035.12 409.46, 1033.26 412.65 C 1031.39 415.85, 1030.28 417.57, 1028.15 420.10 C 1026.03 422.63, 1024.75 423.71, 1022.62 425.32 C 1020.49 426.93, 1019.47 427.51, 1017.48 428.14 C 1015.49 428.76, 1014.49 428.84, 1012.67 428.45 C 1010.85 428.05, 1009.86 427.63, 1008.40 426.18 C 1006.93 424.74, 1006.30 423.67, 1005.37 421.22 C 1004.43 418.77, 1003.96 417.09, 1003.70 413.93 C 1003.44 410.77, 1003.75 408.62, 1004.08 405.42 C 1004.40 402.22, 1005.11 400.32, 1005.33 397.93 C 1005.56 395.53, 1005.49 394.36, 1005.20 393.46 C 1004.91 392.56, 1004.69 392.49, 1003.89 393.42 C 1003.08 394.35, 1002.57 395.51, 1001.17 398.09 C 999.78 400.68, 999.14 403.00, 996.91 406.34 C 994.68 409.67, 993.10 411.69, 990.02 414.76 C 986.93 417.82, 984.98 419.41, 981.48 421.67 C 977.98 423.94, 975.94 424.91, 972.51 426.08 C 969.09 427.24, 967.23 427.45, 964.36 427.51 C 961.50 427.57, 960.15 427.33, 958.18 426.39 C 956.20 425.45, 955.37 424.71, 954.50 422.80 C 953.62 420.89, 953.43 419.58, 953.81 416.84 C 954.20 414.09, 954.72 412.22, 956.41 409.05 C 958.11 405.89, 959.53 403.92, 962.29 401.01 C 965.04 398.10, 966.97 396.58, 970.18 394.49 C 973.39 392.40, 975.30 391.53, 978.35 390.55 C 981.40 389.57, 982.91 389.62, 985.43 389.61 C 987.96 389.60, 989.07 390.07, 991.00 390.52 C 992.92 390.96, 993.70 391.41, 995.07 391.82 C 996.43 392.23, 997.08 392.69, 997.83 392.56 C 998.58 392.43, 999.03 391.96, 998.83 391.15" style="stroke: black; fill: black;"/><path d="M 1164.15,389.34 C 1163.83 388.51, 1163.26 387.60, 1161.63 386.58 C 1160.01 385.56, 1158.83 384.78, 1156.05 384.24 C 1153.26 383.70, 1151.24 383.63, 1147.71 383.87 C 1144.19 384.12, 1142.03 384.61, 1138.42 385.46 C 1134.82 386.31, 1132.70 386.79, 1129.68 388.12 C 1126.66 389.46, 1125.01 390.27, 1123.32 392.12 C 1121.63 393.98, 1121.12 395.22, 1121.24 397.39 C 1121.35 399.57, 1121.96 400.92, 1123.90 403.00 C 1125.84 405.09, 1127.64 405.95, 1130.93 407.80 C 1134.22 409.65, 1136.54 410.50, 1140.35 412.27 C 1144.15 414.04, 1146.53 414.97, 1149.95 416.66 C 1153.37 418.35, 1155.08 419.34, 1157.45 420.73 C 1159.81 422.12, 1160.86 422.57, 1161.80 423.60 C 1162.73 424.64, 1162.79 425.02, 1162.13 425.90 C 1161.48 426.78, 1160.64 427.00, 1158.51 428.00 C 1156.39 429.00, 1154.81 429.82, 1151.51 430.88 C 1148.21 431.94, 1145.93 432.59, 1142.02 433.32 C 1138.12 434.04, 1135.67 434.32, 1131.96 434.50 C 1128.26 434.67, 1126.21 434.39, 1123.48 434.18 C 1120.75 433.98, 1119.54 433.90, 1118.32 433.47 C 1117.10 433.03, 1116.91 432.82, 1117.38 432.01 C 1117.85 431.19, 1118.62 430.84, 1120.66 429.40 C 1122.69 427.96, 1124.06 426.69, 1127.56 424.82 C 1131.05 422.94, 1133.50 421.80, 1138.12 420.02 C 1142.73 418.24, 1145.55 417.39, 1150.63 415.93 C 1155.72 414.46, 1158.53 413.83, 1163.55 412.68 C 1168.57 411.53, 1171.17 411.08, 1175.72 410.17 C 1180.28 409.26, 1182.44 408.92, 1186.33 408.14 C 1190.22 407.36, 1191.99 407.06, 1195.17 406.26 C 1198.36 405.46, 1199.79 405.09, 1202.25 404.14 C 1204.72 403.18, 1205.82 402.71, 1207.49 401.49 C 1209.17 400.26, 1209.93 399.53, 1210.65 398.03 C 1211.37 396.52, 1211.55 395.54, 1211.10 393.95 C 1210.65 392.36, 1210.09 391.32, 1208.40 390.08 C 1206.71 388.85, 1205.37 388.11, 1202.65 387.78 C 1199.92 387.45, 1198.09 387.57, 1194.78 388.43 C 1191.47 389.29, 1189.49 390.13, 1186.08 392.10 C 1182.67 394.07, 1180.72 395.48, 1177.71 398.27 C 1174.71 401.07, 1173.15 402.88, 1171.06 406.08 C 1168.96 409.27, 1167.99 411.10, 1167.24 414.24 C 1166.48 417.38, 1166.53 419.09, 1167.29 421.76 C 1168.05 424.44, 1168.95 425.83, 1171.05 427.63 C 1173.15 429.43, 1174.74 430.19, 1177.79 430.77 C 1180.83 431.35, 1182.77 431.17, 1186.28 430.52 C 1189.80 429.88, 1191.80 429.19, 1195.37 427.54 C 1198.94 425.89, 1200.87 424.67, 1204.12 422.27 C 1207.37 419.87, 1209.04 418.27, 1211.63 415.55 C 1214.21 412.84, 1215.68 411.09, 1217.04 408.70 C 1218.40 406.30, 1218.46 404.76, 1218.44 403.56 C 1218.41 402.36, 1217.70 402.11, 1216.92 402.68 C 1216.15 403.26, 1215.21 404.23, 1214.54 406.46 C 1213.87 408.68, 1213.50 410.67, 1213.57 413.80 C 1213.64 416.93, 1214.01 419.02, 1214.89 422.10 C 1215.77 425.18, 1216.33 426.94, 1217.98 429.21 C 1219.62 431.48, 1221.81 432.86, 1223.11 433.46 C 1224.41 434.07, 1224.83 433.49, 1224.47 432.24 C 1224.11 431.00, 1222.33 429.47, 1221.29 427.24 C 1220.26 425.01, 1219.73 423.80, 1219.29 421.09 C 1218.86 418.39, 1219.11 416.53, 1219.10 413.72 C 1219.09 410.91, 1219.36 409.19, 1219.24 407.04 C 1219.11 404.88, 1218.97 403.83, 1218.45 402.96 C 1217.93 402.08, 1217.63 401.95, 1216.64 402.65 C 1215.65 403.35, 1215.03 404.34, 1213.52 406.45 C 1212.00 408.57, 1211.33 410.59, 1209.07 413.23 C 1206.80 415.88, 1205.21 417.42, 1202.19 419.67 C 1199.18 421.91, 1197.29 423.02, 1193.98 424.46 C 1190.68 425.90, 1188.77 426.40, 1185.67 426.86 C 1182.57 427.33, 1180.97 427.18, 1178.49 426.79 C 1176.00 426.40, 1174.84 426.09, 1173.25 424.91 C 1171.65 423.73, 1171.03 422.84, 1170.52 420.88 C 1170.01 418.92, 1170.03 417.69, 1170.70 415.10 C 1171.36 412.50, 1172.00 410.77, 1173.84 407.88 C 1175.69 405.00, 1177.15 403.22, 1179.94 400.69 C 1182.72 398.15, 1184.62 396.83, 1187.78 395.19 C 1190.94 393.56, 1192.85 393.07, 1195.72 392.49 C 1198.60 391.92, 1200.03 392.14, 1202.17 392.32 C 1204.30 392.51, 1205.16 392.90, 1206.40 393.42 C 1207.64 393.94, 1208.02 394.29, 1208.37 394.93 C 1208.71 395.56, 1208.66 395.86, 1208.12 396.60 C 1207.57 397.35, 1207.06 397.81, 1205.62 398.65 C 1204.19 399.48, 1203.19 399.86, 1200.93 400.76 C 1198.66 401.66, 1197.34 402.20, 1194.30 403.14 C 1191.26 404.08, 1189.55 404.53, 1185.74 405.45 C 1181.92 406.37, 1179.76 406.76, 1175.22 407.75 C 1170.68 408.73, 1168.07 409.21, 1163.02 410.38 C 1157.97 411.54, 1155.14 412.17, 1149.97 413.57 C 1144.80 414.98, 1141.96 415.77, 1137.17 417.40 C 1132.38 419.02, 1129.82 419.94, 1126.01 421.71 C 1122.19 423.47, 1120.28 424.28, 1118.10 426.23 C 1115.93 428.17, 1115.38 429.54, 1115.15 431.43 C 1114.92 433.32, 1115.36 434.36, 1116.95 435.67 C 1118.53 436.98, 1120.02 437.53, 1123.06 437.98 C 1126.10 438.42, 1128.24 438.13, 1132.15 437.88 C 1136.06 437.63, 1138.51 437.37, 1142.61 436.72 C 1146.71 436.07, 1149.07 435.67, 1152.65 434.64 C 1156.23 433.62, 1158.17 433.11, 1160.53 431.58 C 1162.88 430.06, 1163.74 428.93, 1164.44 427.04 C 1165.15 425.14, 1165.05 424.00, 1164.05 422.11 C 1163.05 420.22, 1161.96 419.26, 1159.43 417.57 C 1156.90 415.88, 1154.93 415.32, 1151.41 413.64 C 1147.89 411.97, 1145.53 411.02, 1141.82 409.20 C 1138.10 407.37, 1135.88 406.31, 1132.83 404.52 C 1129.78 402.72, 1128.37 401.68, 1126.57 400.20 C 1124.77 398.73, 1124.03 398.28, 1123.83 397.14 C 1123.62 396.01, 1124.07 395.60, 1125.55 394.52 C 1127.02 393.44, 1128.45 392.82, 1131.20 391.75 C 1133.94 390.69, 1135.93 389.91, 1139.27 389.18 C 1142.61 388.44, 1144.71 388.13, 1147.90 388.08 C 1151.09 388.03, 1152.77 388.56, 1155.23 388.93 C 1157.69 389.30, 1158.59 389.56, 1160.19 389.93 C 1161.79 390.30, 1162.44 390.89, 1163.23 390.77 C 1164.02 390.65, 1164.47 390.18, 1164.15 389.34" style="stroke: black; fill: black;"/><path d="M 1271.99,344.58 C 1271.41 344.99, 1271.05 345.13, 1270.38 346.94 C 1269.71 348.76, 1269.37 350.04, 1268.64 353.66 C 1267.92 357.28, 1267.66 359.86, 1266.77 365.04 C 1265.88 370.23, 1265.21 373.60, 1264.19 379.59 C 1263.18 385.58, 1262.49 389.06, 1261.69 394.99 C 1260.89 400.92, 1260.50 403.98, 1260.18 409.26 C 1259.86 414.54, 1259.95 417.19, 1260.09 421.39 C 1260.23 425.58, 1260.37 427.46, 1260.89 430.24 C 1261.41 433.02, 1262.02 433.84, 1262.70 435.28 C 1263.38 436.73, 1263.79 437.10, 1264.28 437.46 C 1264.77 437.83, 1265.05 437.67, 1265.16 437.11 C 1265.28 436.54, 1265.04 436.14, 1264.85 434.65 C 1264.66 433.16, 1264.65 432.34, 1264.22 429.66 C 1263.79 426.97, 1263.06 425.28, 1262.70 421.23 C 1262.34 417.17, 1262.19 414.57, 1262.41 409.38 C 1262.63 404.19, 1263.00 401.15, 1263.81 395.28 C 1264.62 389.40, 1265.32 385.94, 1266.47 380.00 C 1267.62 374.07, 1268.37 370.71, 1269.55 365.60 C 1270.72 360.49, 1271.52 358.03, 1272.34 354.45 C 1273.16 350.87, 1273.45 349.61, 1273.65 347.70 C 1273.84 345.79, 1273.64 345.53, 1273.31 344.91 C 1272.98 344.28, 1272.58 344.17, 1271.99 344.58" style="stroke: black; fill: black;"/></svg>